<svg xmlns="http://www.w3.org/2000/svg" xmlns:xlink="http://www.w3.org/1999/xlink" id="body_1" preserveAspectRatio="xMinYMin meet" viewBox="0 0 816 1056"><defs><clipPath id="cp_1"><path id="" clip-rule="evenodd" transform="matrix(1 0 0 1 0 0)" d="M0 0L612 0L612 792L0 792z" /></clipPath></defs><g transform="matrix(1.3333334 0 0 1.3333334 0 0)" clip-path="url(#cp_1)"><path id="" transform="matrix(1 0 0 1 0 0)" d="M0 0L612 0L612 792L0 792" stroke="none" fill="#FFFFFF" fill-rule="evenodd" /><path id="" transform="matrix(1 0 0 1 0 0)" d="M54.536148 82.00162L54.536148 227.46077" stroke="#C6C6C6" stroke-width="0.25" fill="#C6C6C6" fill-rule="evenodd" /><path id="" transform="matrix(1 0 0 1 0 0)" d="M87.664055 82.00162L87.664055 227.46077" stroke="#C6C6C6" stroke-width="0.25" fill="#C6C6C6" fill-rule="evenodd" /><path id="" transform="matrix(1 0 0 1 0 0)" d="M129.1372 82.00162L129.1372 227.46077" stroke="#C6C6C6" stroke-width="0.25" fill="#C6C6C6" fill-rule="evenodd" /><path id="" transform="matrix(1 0 0 1 0 0)" d="M178.35556 82.00162L178.35556 227.46077" stroke="#C6C6C6" stroke-width="0.25" fill="#C6C6C6" fill-rule="evenodd" /><path id="" transform="matrix(1 0 0 1 0 0)" d="M219.43854 82.00162L219.43854 227.46077" stroke="#C6C6C6" stroke-width="0.25" fill="#C6C6C6" fill-rule="evenodd" /><path id="" transform="matrix(1 0 0 1 0 0)" d="M315.04303 82.00162L315.04303 227.46077" stroke="#C6C6C6" stroke-width="0.25" fill="#C6C6C6" fill-rule="evenodd" /><path id="" transform="matrix(1 0 0 1 0 0)" d="M54.536148 82.00162L416.33698 82.00162" stroke="#C6C6C6" stroke-width="0.25" fill="#C6C6C6" fill-rule="evenodd" /><path id="" transform="matrix(1 0 0 1 0 0)" d="M54.536148 93.19079L416.33698 93.19079" stroke="#C6C6C6" stroke-width="0.25" fill="#C6C6C6" fill-rule="evenodd" /><path id="" transform="matrix(1 0 0 1 0 0)" d="M54.536148 104.37996L416.33698 104.37996" stroke="#C6C6C6" stroke-width="0.25" fill="#C6C6C6" fill-rule="evenodd" /><path id="" transform="matrix(1 0 0 1 0 0)" d="M54.536148 115.56912L416.33698 115.56912" stroke="#C6C6C6" stroke-width="0.25" fill="#C6C6C6" fill-rule="evenodd" /><path id="" transform="matrix(1 0 0 1 0 0)" d="M54.536148 126.758286L416.33698 126.758286" stroke="#C6C6C6" stroke-width="0.25" fill="#C6C6C6" fill-rule="evenodd" /><path id="" transform="matrix(1 0 0 1 0 0)" d="M54.536148 137.94745L416.33698 137.94745" stroke="#C6C6C6" stroke-width="0.25" fill="#C6C6C6" fill-rule="evenodd" /><path id="" transform="matrix(1 0 0 1 0 0)" d="M54.536148 149.13663L416.33698 149.13663" stroke="#C6C6C6" stroke-width="0.25" fill="#C6C6C6" fill-rule="evenodd" /><path id="" transform="matrix(1 0 0 1 0 0)" d="M54.536148 160.32579L416.33698 160.32579" stroke="#C6C6C6" stroke-width="0.25" fill="#C6C6C6" fill-rule="evenodd" /><path id="" transform="matrix(1 0 0 1 0 0)" d="M54.536148 171.51495L416.33698 171.51495" stroke="#C6C6C6" stroke-width="0.25" fill="#C6C6C6" fill-rule="evenodd" /><path id="" transform="matrix(1 0 0 1 0 0)" d="M54.536148 182.70412L416.33698 182.70412" stroke="#C6C6C6" stroke-width="0.25" fill="#C6C6C6" fill-rule="evenodd" /><path id="" transform="matrix(1 0 0 1 0 0)" d="M54.536148 193.89328L416.33698 193.89328" stroke="#C6C6C6" stroke-width="0.25" fill="#C6C6C6" fill-rule="evenodd" /><path id="" transform="matrix(1 0 0 1 0 0)" d="M54.536148 205.08244L416.33698 205.08244" stroke="#C6C6C6" stroke-width="0.25" fill="#C6C6C6" fill-rule="evenodd" /><path id="" transform="matrix(1 0 0 1 0 0)" d="M54.536148 216.2716L416.33698 216.2716" stroke="#C6C6C6" stroke-width="0.25" fill="#C6C6C6" fill-rule="evenodd" /><path id="" transform="matrix(1 0 0 1 0 0)" d="M54.536148 82.00162L416.33698 82.00162" stroke="#C6C6C6" stroke-width="0.25" fill="#C6C6C6" fill-rule="evenodd" /><path id="" transform="matrix(1 0 0 1 0 0)" d="M416.33698 82.00162L416.33698 227.46077" stroke="#C6C6C6" stroke-width="0.25" fill="#C6C6C6" fill-rule="evenodd" /><path id="" transform="matrix(1 0 0 1 0 0)" d="M416.33698 227.46077L54.536148 227.46077" stroke="#C6C6C6" stroke-width="0.25" fill="#C6C6C6" fill-rule="evenodd" /><path id="" transform="matrix(1 0 0 1 0 0)" d="M54.536148 227.46077L54.536148 82.00162" stroke="#C6C6C6" stroke-width="0.25" fill="#C6C6C6" fill-rule="evenodd" /><path id="" transform="matrix(1 0 0 1 0 0)" d="M221.75845 99.93448L297.6399 99.93448" stroke="#0000FF" stroke-width="0.46875" fill="#0000FF" fill-rule="evenodd" /><path id="" transform="matrix(1 0 0 1 0 0)" d="M223.4755 111.12365L307.35788 111.12365" stroke="#0000FF" stroke-width="0.46875" fill="#0000FF" fill-rule="evenodd" /><path id="" transform="matrix(1 0 0 1 0 0)" d="M221.75845 122.31281L297.6399 122.31281" stroke="#0000FF" stroke-width="0.46875" fill="#0000FF" fill-rule="evenodd" /><path id="" transform="matrix(1 0 0 1 0 0)" d="M221.75845 133.50198L296.62634 133.50198" stroke="#0000FF" stroke-width="0.46875" fill="#0000FF" fill-rule="evenodd" /><path id="" transform="matrix(1 0 0 1 0 0)" d="M221.75845 144.69115L296.62634 144.69115" stroke="#0000FF" stroke-width="0.46875" fill="#0000FF" fill-rule="evenodd" /><path id="" transform="matrix(1 0 0 1 0 0)" d="M221.75845 155.88033L295.65335 155.88033" stroke="#0000FF" stroke-width="0.46875" fill="#0000FF" fill-rule="evenodd" /><path id="" transform="matrix(1 0 0 1 0 0)" d="M221.75845 167.06949L296.62634 167.06949" stroke="#0000FF" stroke-width="0.46875" fill="#0000FF" fill-rule="evenodd" /><path id="" transform="matrix(1 0 0 1 0 0)" d="M221.75845 178.25864L297.6399 178.25864" stroke="#0000FF" stroke-width="0.46875" fill="#0000FF" fill-rule="evenodd" /><path id="" transform="matrix(1 0 0 1 0 0)" d="M223.4755 189.4478L307.35788 189.4478" stroke="#0000FF" stroke-width="0.46875" fill="#0000FF" fill-rule="evenodd" /><path id="" transform="matrix(1 0 0 1 0 0)" d="M221.75845 200.63696L297.6399 200.63696" stroke="#0000FF" stroke-width="0.46875" fill="#0000FF" fill-rule="evenodd" /><path id="" transform="matrix(1 0 0 1 0 0)" d="M221.75845 211.82613L295.65335 211.82613" stroke="#0000FF" stroke-width="0.46875" fill="#0000FF" fill-rule="evenodd" /><path id="" transform="matrix(1 0 0 1 0 0)" d="M221.75845 223.01529L296.62634 223.01529" stroke="#0000FF" stroke-width="0.46875" fill="#0000FF" fill-rule="evenodd" /><path id="" transform="matrix(1 0 0 1 0 0)" d="M450.14316 61.188133L450.14316 128.32312" stroke="#C6C6C6" stroke-width="0.25" fill="#C6C6C6" fill-rule="evenodd" /><path id="" transform="matrix(1 0 0 1 0 0)" d="M475.9736 61.188133L475.9736 128.32312" stroke="#C6C6C6" stroke-width="0.25" fill="#C6C6C6" fill-rule="evenodd" /><path id="" transform="matrix(1 0 0 1 0 0)" d="M501.80405 61.188133L501.80405 128.32312" stroke="#C6C6C6" stroke-width="0.25" fill="#C6C6C6" fill-rule="evenodd" /><path id="" transform="matrix(1 0 0 1 0 0)" d="M527.6345 61.188133L527.6345 128.32312" stroke="#C6C6C6" stroke-width="0.25" fill="#C6C6C6" fill-rule="evenodd" /><path id="" transform="matrix(1 0 0 1 0 0)" d="M553.46497 61.188133L553.46497 128.32312" stroke="#C6C6C6" stroke-width="0.25" fill="#C6C6C6" fill-rule="evenodd" /><path id="" transform="matrix(1 0 0 1 0 0)" d="M579.2954 61.188133L579.2954 128.32312" stroke="#C6C6C6" stroke-width="0.25" fill="#C6C6C6" fill-rule="evenodd" /><path id="" transform="matrix(1 0 0 1 0 0)" d="M605.12585 61.188133L605.12585 128.32312" stroke="#C6C6C6" stroke-width="0.25" fill="#C6C6C6" fill-rule="evenodd" /><path id="" transform="matrix(1 0 0 1 0 0)" d="M450.14316 61.188133L630.9563 61.188133" stroke="#C6C6C6" stroke-width="0.25" fill="#C6C6C6" fill-rule="evenodd" /><path id="" transform="matrix(1 0 0 1 0 0)" d="M450.14316 72.377304L630.9563 72.377304" stroke="#C6C6C6" stroke-width="0.25" fill="#C6C6C6" fill-rule="evenodd" /><path id="" transform="matrix(1 0 0 1 0 0)" d="M450.14316 83.56647L630.9563 83.56647" stroke="#C6C6C6" stroke-width="0.25" fill="#C6C6C6" fill-rule="evenodd" /><path id="" transform="matrix(1 0 0 1 0 0)" d="M450.14316 94.75563L630.9563 94.75563" stroke="#C6C6C6" stroke-width="0.25" fill="#C6C6C6" fill-rule="evenodd" /><path id="" transform="matrix(1 0 0 1 0 0)" d="M450.14316 105.9448L630.9563 105.9448" stroke="#C6C6C6" stroke-width="0.25" fill="#C6C6C6" fill-rule="evenodd" /><path id="" transform="matrix(1 0 0 1 0 0)" d="M450.14316 117.133965L630.9563 117.133965" stroke="#C6C6C6" stroke-width="0.25" fill="#C6C6C6" fill-rule="evenodd" /><path id="" transform="matrix(1 0 0 1 0 0)" d="M450.14316 61.188133L630.9563 61.188133" stroke="#C6C6C6" stroke-width="0.25" fill="#C6C6C6" fill-rule="evenodd" /><path id="" transform="matrix(1 0 0 1 0 0)" d="M630.9563 61.188133L630.9563 128.32312" stroke="#C6C6C6" stroke-width="0.25" fill="#C6C6C6" fill-rule="evenodd" /><path id="" transform="matrix(1 0 0 1 0 0)" d="M630.9563 128.32312L450.14316 128.32312" stroke="#C6C6C6" stroke-width="0.25" fill="#C6C6C6" fill-rule="evenodd" /><path id="" transform="matrix(1 0 0 1 0 0)" d="M450.14316 128.32312L450.14316 61.188133" stroke="#C6C6C6" stroke-width="0.25" fill="#C6C6C6" fill-rule="evenodd" /><path id="" transform="matrix(1 0 0 1 0 0)" d="M450.14316 149.10081L450.14316 216.23581" stroke="#C6C6C6" stroke-width="0.25" fill="#C6C6C6" fill-rule="evenodd" /><path id="" transform="matrix(1 0 0 1 0 0)" d="M475.9736 149.10081L475.9736 216.23581" stroke="#C6C6C6" stroke-width="0.25" fill="#C6C6C6" fill-rule="evenodd" /><path id="" transform="matrix(1 0 0 1 0 0)" d="M501.80405 149.10081L501.80405 216.23581" stroke="#C6C6C6" stroke-width="0.25" fill="#C6C6C6" fill-rule="evenodd" /><path id="" transform="matrix(1 0 0 1 0 0)" d="M527.6345 149.10081L527.6345 216.23581" stroke="#C6C6C6" stroke-width="0.25" fill="#C6C6C6" fill-rule="evenodd" /><path id="" transform="matrix(1 0 0 1 0 0)" d="M553.46497 149.10081L553.46497 216.23581" stroke="#C6C6C6" stroke-width="0.25" fill="#C6C6C6" fill-rule="evenodd" /><path id="" transform="matrix(1 0 0 1 0 0)" d="M579.2954 149.10081L579.2954 216.23581" stroke="#C6C6C6" stroke-width="0.25" fill="#C6C6C6" fill-rule="evenodd" /><path id="" transform="matrix(1 0 0 1 0 0)" d="M605.12585 149.10081L605.12585 216.23581" stroke="#C6C6C6" stroke-width="0.25" fill="#C6C6C6" fill-rule="evenodd" /><path id="" transform="matrix(1 0 0 1 0 0)" d="M450.14316 149.10081L630.9563 149.10081" stroke="#C6C6C6" stroke-width="0.25" fill="#C6C6C6" fill-rule="evenodd" /><path id="" transform="matrix(1 0 0 1 0 0)" d="M450.14316 160.28998L630.9563 160.28998" stroke="#C6C6C6" stroke-width="0.25" fill="#C6C6C6" fill-rule="evenodd" /><path id="" transform="matrix(1 0 0 1 0 0)" d="M450.14316 171.47914L630.9563 171.47914" stroke="#C6C6C6" stroke-width="0.25" fill="#C6C6C6" fill-rule="evenodd" /><path id="" transform="matrix(1 0 0 1 0 0)" d="M450.14316 182.6683L630.9563 182.6683" stroke="#C6C6C6" stroke-width="0.25" fill="#C6C6C6" fill-rule="evenodd" /><path id="" transform="matrix(1 0 0 1 0 0)" d="M450.14316 193.85747L630.9563 193.85747" stroke="#C6C6C6" stroke-width="0.25" fill="#C6C6C6" fill-rule="evenodd" /><path id="" transform="matrix(1 0 0 1 0 0)" d="M450.14316 205.04665L630.9563 205.04665" stroke="#C6C6C6" stroke-width="0.25" fill="#C6C6C6" fill-rule="evenodd" /><path id="" transform="matrix(1 0 0 1 0 0)" d="M450.14316 149.10081L630.9563 149.10081" stroke="#C6C6C6" stroke-width="0.25" fill="#C6C6C6" fill-rule="evenodd" /><path id="" transform="matrix(1 0 0 1 0 0)" d="M630.9563 149.10081L630.9563 216.23581" stroke="#C6C6C6" stroke-width="0.25" fill="#C6C6C6" fill-rule="evenodd" /><path id="" transform="matrix(1 0 0 1 0 0)" d="M630.9563 216.23581L450.14316 216.23581" stroke="#C6C6C6" stroke-width="0.25" fill="#C6C6C6" fill-rule="evenodd" /><path id="" transform="matrix(1 0 0 1 0 0)" d="M450.14316 216.23581L450.14316 149.10081" stroke="#C6C6C6" stroke-width="0.25" fill="#C6C6C6" fill-rule="evenodd" /><path id="" transform="matrix(1 0 0 1 0 0)" d="M54.536148 272.7721L54.536148 501.49554" stroke="#C6C6C6" stroke-width="0.25" fill="#C6C6C6" fill-rule="evenodd" /><path id="" transform="matrix(1 0 0 1 0 0)" d="M105.78232 272.7721L105.78232 501.49554" stroke="#C6C6C6" stroke-width="0.25" fill="#C6C6C6" fill-rule="evenodd" /><path id="" transform="matrix(1 0 0 1 0 0)" d="M137.20084 272.7721L137.20084 501.49554" stroke="#C6C6C6" stroke-width="0.25" fill="#C6C6C6" fill-rule="evenodd" /><path id="" transform="matrix(1 0 0 1 0 0)" d="M259.4704 272.7721L259.4704 501.49554" stroke="#C6C6C6" stroke-width="0.25" fill="#C6C6C6" fill-rule="evenodd" /><path id="" transform="matrix(1 0 0 1 0 0)" d="M310.1034 272.7721L310.1034 501.49554" stroke="#C6C6C6" stroke-width="0.25" fill="#C6C6C6" fill-rule="evenodd" /><path id="" transform="matrix(1 0 0 1 0 0)" d="M342.67972 272.7721L342.67972 501.49554" stroke="#C6C6C6" stroke-width="0.25" fill="#C6C6C6" fill-rule="evenodd" /><path id="" transform="matrix(1 0 0 1 0 0)" d="M375.25604 272.7721L375.25604 501.49554" stroke="#C6C6C6" stroke-width="0.25" fill="#C6C6C6" fill-rule="evenodd" /><path id="" transform="matrix(1 0 0 1 0 0)" d="M408.78992 272.7721L408.78992 501.49554" stroke="#C6C6C6" stroke-width="0.25" fill="#C6C6C6" fill-rule="evenodd" /><path id="" transform="matrix(1 0 0 1 0 0)" d="M451.1891 272.7721L451.1891 501.49554" stroke="#C6C6C6" stroke-width="0.25" fill="#C6C6C6" fill-rule="evenodd" /><path id="" transform="matrix(1 0 0 1 0 0)" d="M530.49316 272.7721L530.49316 501.49554" stroke="#C6C6C6" stroke-width="0.25" fill="#C6C6C6" fill-rule="evenodd" /><path id="" transform="matrix(1 0 0 1 0 0)" d="M54.536148 272.7721L595.4616 272.7721" stroke="#C6C6C6" stroke-width="0.25" fill="#C6C6C6" fill-rule="evenodd" /><path id="" transform="matrix(1 0 0 1 0 0)" d="M54.536148 290.6029L595.4616 290.6029" stroke="#C6C6C6" stroke-width="0.25" fill="#C6C6C6" fill-rule="evenodd" /><path id="" transform="matrix(1 0 0 1 0 0)" d="M54.536148 322.39062L595.4616 322.39062" stroke="#C6C6C6" stroke-width="0.25" fill="#C6C6C6" fill-rule="evenodd" /><path id="" transform="matrix(1 0 0 1 0 0)" d="M54.536148 399.01706L595.4616 399.01706" stroke="#C6C6C6" stroke-width="0.25" fill="#C6C6C6" fill-rule="evenodd" /><path id="" transform="matrix(1 0 0 1 0 0)" d="M54.536148 441.79388L595.4616 441.79388" stroke="#C6C6C6" stroke-width="0.25" fill="#C6C6C6" fill-rule="evenodd" /><path id="" transform="matrix(1 0 0 1 0 0)" d="M54.536148 272.7721L595.4616 272.7721" stroke="#C6C6C6" stroke-width="0.25" fill="#C6C6C6" fill-rule="evenodd" /><path id="" transform="matrix(1 0 0 1 0 0)" d="M595.4616 272.7721L595.4616 501.49554" stroke="#C6C6C6" stroke-width="0.25" fill="#C6C6C6" fill-rule="evenodd" /><path id="" transform="matrix(1 0 0 1 0 0)" d="M595.4616 501.49554L54.536148 501.49554" stroke="#C6C6C6" stroke-width="0.25" fill="#C6C6C6" fill-rule="evenodd" /><path id="" transform="matrix(1 0 0 1 0 0)" d="M54.536148 501.49554L54.536148 272.7721" stroke="#C6C6C6" stroke-width="0.25" fill="#C6C6C6" fill-rule="evenodd" /><path id="" transform="matrix(1 0 0 1 0 0)" d="M141.2378 320.20712L216.1057 320.20712" stroke="#0000FF" stroke-width="0.46875" fill="#0000FF" fill-rule="evenodd" /><path id="" transform="matrix(1 0 0 1 0 0)" d="M141.2378 346.05914L225.12018 346.05914" stroke="#0000FF" stroke-width="0.46875" fill="#0000FF" fill-rule="evenodd" /><path id="" transform="matrix(1 0 0 1 0 0)" d="M141.2378 362.98395L215.76944 362.98395" stroke="#0000FF" stroke-width="0.46875" fill="#0000FF" fill-rule="evenodd" /><path id="" transform="matrix(1 0 0 1 0 0)" d="M141.2378 379.90875L241.63719 379.90875" stroke="#0000FF" stroke-width="0.46875" fill="#0000FF" fill-rule="evenodd" /><path id="" transform="matrix(1 0 0 1 0 0)" d="M141.2378 396.83356L220.40308 396.83356" stroke="#0000FF" stroke-width="0.46875" fill="#0000FF" fill-rule="evenodd" /><path id="" transform="matrix(1 0 0 1 0 0)" d="M141.2378 422.68555L215.1327 422.68555" stroke="#0000FF" stroke-width="0.46875" fill="#0000FF" fill-rule="evenodd" /><path id="" transform="matrix(1 0 0 1 0 0)" d="M141.2378 439.61035L211.34328 439.61035" stroke="#0000FF" stroke-width="0.46875" fill="#0000FF" fill-rule="evenodd" /><path id="" transform="matrix(1 0 0 1 0 0)" d="M141.2378 465.46237L217.11922 465.46237" stroke="#0000FF" stroke-width="0.46875" fill="#0000FF" fill-rule="evenodd" /><path id="" transform="matrix(1 0 0 1 0 0)" d="M141.2378 482.3872L211.89893 482.3872" stroke="#0000FF" stroke-width="0.46875" fill="#0000FF" fill-rule="evenodd" /><path id="" transform="matrix(1 0 0 1 0 0)" d="M141.2378 499.312L214.15732 499.312" stroke="#0000FF" stroke-width="0.46875" fill="#0000FF" fill-rule="evenodd" /></g></svg>